<svg xmlns="http://www.w3.org/2000/svg" viewBox="0 0 24 24"><path fill="#fff" fill-rule="evenodd" d="M12 .3a12 12 0 0 0-3.79 23.39c.6.11.82-.26.82-.58l-.02-2.04c-3.34.73-4.04-1.6-4.04-1.6-.55-1.39-1.34-1.76-1.34-1.76-1.08-.75.08-.73.08-.73 1.21.09 1.84 1.24 1.84 1.24 1.07 1.83 2.81 1.3 3.5 1 .1-.78.42-1.31.76-1.61-2.67-.3-5.47-1.33-5.47-5.93 0-1.31.47-2.38 1.24-3.22-.13-.3-.54-1.52.11-3.18 0 0 1-.32 3.3 1.23a11.5 11.5 0 0 1 6 0c2.28-1.55 3.28-1.23 3.28-1.23.65 1.66.24 2.88.12 3.18a4.65 4.65 0 0 1 1.23 3.22c0 4.61-2.81 5.62-5.48 5.92.43.36.81 1.1.81 2.22l-.01 3.29c0 .31.21.69.82.57A12 12 0 0 0 12 .3Z"/></svg>
